<svg width="100" height="100" viewBox="0 0 100 100" fill="none" xmlns="http://www.w3.org/2000/svg">
<circle cx="50" cy="50" r="50" fill="#FF7500" fill-opacity="0.2"/>
<path fill-rule="evenodd" clip-rule="evenodd" d="M36 27.6C37.5464 27.6 38.8 28.8536 38.8 30.4V33.2H41.6C43.1464 33.2 44.4 34.4536 44.4 36C44.4 37.5464 43.1464 38.8 41.6 38.8H38.8V41.6C38.8 43.1464 37.5464 44.4 36 44.4C34.4536 44.4 33.2 43.1464 33.2 41.6V38.8H30.4C28.8536 38.8 27.6 37.5464 27.6 36C27.6 34.4536 28.8536 33.2 30.4 33.2H33.2V30.4C33.2 28.8536 34.4536 27.6 36 27.6ZM36 55.6C37.5464 55.6 38.8 56.8536 38.8 58.4V61.2H41.6C43.1464 61.2 44.4 62.4536 44.4 64C44.4 65.5464 43.1464 66.8 41.6 66.8H38.8V69.6C38.8 71.1464 37.5464 72.4 36 72.4C34.4536 72.4 33.2 71.1464 33.2 69.6V66.8H30.4C28.8536 66.8 27.6 65.5464 27.6 64C27.6 62.4536 28.8536 61.2 30.4 61.2H33.2V58.4C33.2 56.8536 34.4536 55.6 36 55.6Z" fill="#FF7500"/>
<path fill-rule="evenodd" clip-rule="evenodd" d="M55.5999 27.6C56.8703 27.6 57.9815 28.4553 58.3066 29.6835L61.6084 42.157L70.9991 47.5747C71.8658 48.0747 72.3999 48.9993 72.3999 50C72.3999 51.0006 71.8658 51.9252 70.9991 52.4253L61.6084 57.843L58.3066 70.3165C57.9815 71.5446 56.8703 72.4 55.5999 72.4C54.3294 72.4 53.2182 71.5446 52.8931 70.3165L49.5913 57.843L40.2008 52.4253C39.334 51.9252 38.8 51.0006 38.8 50C38.8 48.9993 39.334 48.0747 40.2008 47.5747L49.5913 42.157L52.8931 29.6835C53.2182 28.4553 54.3294 27.6 55.5999 27.6Z" fill="#FF7500"/>
</svg>
