<svg width="100" height="100" viewBox="0 0 100 100" fill="none" xmlns="http://www.w3.org/2000/svg">
<circle cx="50" cy="50" r="50" fill="#FF7500" fill-opacity="0.2"/>
<path fill-rule="evenodd" clip-rule="evenodd" d="M53.6418 24.9295C54.8074 25.297 55.6 26.3779 55.6 27.6V41.6L66.8 41.6C67.8441 41.6 68.8014 42.1809 69.2835 43.1069C69.7657 44.033 69.6926 45.1504 69.0939 46.0057L49.4939 74.0057C48.793 75.0069 47.5238 75.4379 46.3582 75.0705C45.1926 74.7031 44.4 73.6221 44.4 72.4L44.4 58.4H33.2C32.156 58.4 31.1986 57.8191 30.7165 56.8931C30.2343 55.967 30.3074 54.8496 30.9062 53.9943L50.5062 25.9943C51.207 24.9931 52.4762 24.5621 53.6418 24.9295Z" fill="#FF7500"/>
</svg>
