<svg width="100" height="100" viewBox="0 0 100 100" fill="none" xmlns="http://www.w3.org/2000/svg">
<circle cx="50" cy="50" r="50" fill="#FF7500" fill-opacity="0.2"/>
<path d="M40.6809 27.3522C40.2807 25.8585 38.7453 24.9721 37.2516 25.3723C35.7579 25.7726 34.8715 27.3079 35.2717 28.8016L35.9964 31.5062C36.3967 32.9999 37.932 33.8864 39.4257 33.4861C40.9194 33.0859 41.8058 31.5505 41.4056 30.0568L40.6809 27.3522Z" fill="#FF7500"/>
<path d="M28.8015 35.2718C27.3078 34.8716 25.7725 35.758 25.3722 37.2517C24.972 38.7454 25.8584 40.2808 27.3521 40.681L30.0567 41.4057C31.5504 41.806 33.0858 40.9195 33.486 39.4258C33.8862 37.9321 32.9998 36.3968 31.5061 35.9965L28.8015 35.2718Z" fill="#FF7500"/>
<path d="M53.4792 33.6803C54.5726 32.5868 54.5726 30.814 53.4792 29.7205C52.3857 28.627 50.6128 28.627 49.5194 29.7205L47.5395 31.7004C46.446 32.7939 46.446 34.5667 47.5395 35.6602C48.6329 36.7537 50.4058 36.7537 51.4993 35.6602L53.4792 33.6803Z" fill="#FF7500"/>
<path d="M33.6802 53.4793L35.6601 51.4994C36.7536 50.4059 36.7536 48.6331 35.6601 47.5396C34.5666 46.4461 32.7938 46.4461 31.7003 47.5396L29.7204 49.5195C28.6269 50.613 28.6269 52.3858 29.7204 53.4793C30.8139 54.5728 32.5867 54.5728 33.6802 53.4793Z" fill="#FF7500"/>
<path d="M42.64 39.0004C41.6 38.5844 40.4122 38.8282 39.6202 39.6202C38.8282 40.4122 38.5844 41.6 39.0003 42.64L50.2003 70.64C50.6098 71.6638 51.582 72.3519 52.6837 72.3977C53.7854 72.4435 54.8114 71.8385 55.3045 70.8523L59.1671 63.127L67.6202 71.58C68.7136 72.6735 70.4865 72.6735 71.58 71.58C72.6735 70.4865 72.6735 68.7137 71.58 67.6202L63.1269 59.1672L70.8523 55.3045C71.8385 54.8114 72.4435 53.7854 72.3977 52.6837C72.3518 51.5821 71.6637 50.6099 70.64 50.2004L42.64 39.0004Z" fill="#FF7500"/>
</svg>
